<?xml version="1.0" standalone="no"?>
<!DOCTYPE svg PUBLIC "-//W3C//DTD SVG 20010904//EN"
 "http://www.w3.org/TR/2001/REC-SVG-20010904/DTD/svg10.dtd">
<svg version="1.0" xmlns="http://www.w3.org/2000/svg"
 width="880.000000pt" height="643.000000pt" viewBox="0 0 880.000000 643.000000"
 preserveAspectRatio="xMidYMid meet">
<metadata>
Created by potrace 1.15, written by Peter Selinger 2001-2017
</metadata>
<g transform="translate(0.000000,643.000000) scale(0.100000,-0.100000)"
fill="#000000" stroke="none">
<path d="M5013 6010 c-108 -23 -207 -109 -242 -212 -37 -110 -21 -234 39 -310
47 -58 43 -62 -72 -81 -226 -36 -485 -132 -688 -255 -271 -164 -519 -408 -692
-682 -37 -58 -72 -116 -77 -130 -6 -14 -15 -32 -21 -40 -13 -19 -62 -128 -90
-200 -70 -179 -124 -410 -140 -608 -11 -132 -13 -322 -4 -346 5 -14 31 -16
180 -16 204 0 187 -12 199 140 14 182 61 436 115 622 166 577 508 1002 1013
1261 112 58 316 142 324 134 2 -3 -22 -26 -54 -51 -32 -25 -83 -65 -112 -88
-319 -251 -565 -536 -695 -808 -112 -232 -171 -417 -225 -695 -33 -171 -74
-492 -65 -506 3 -5 751 -9 1718 -9 l1714 0 6 23 c9 34 7 209 -4 337 -67 761
-527 1439 -1190 1752 -169 80 -385 148 -537 169 -49 7 -83 17 -83 24 0 6 13
29 29 51 81 112 81 271 -1 391 -70 104 -216 160 -345 133z"/>
<path d="M2642 2788 l3 -213 2443 -3 2442 -2 0 215 0 215 -2445 0 -2445 0 2
-212z"/>
<path d="M3755 2399 c-751 -27 -769 -28 -858 -60 -134 -49 -248 -89 -307 -109
-30 -11 -104 -38 -165 -60 -60 -23 -125 -46 -143 -51 -26 -8 -31 -14 -27 -32
4 -21 20 -121 85 -537 17 -107 40 -249 51 -315 10 -66 26 -164 34 -219 7 -54
16 -100 18 -103 3 -2 28 26 57 63 63 81 103 118 155 147 l40 22 835 0 c834 0
835 0 885 22 63 27 216 112 318 178 104 66 165 105 216 135 23 14 218 142 433
285 370 246 393 262 406 300 41 120 -67 245 -190 220 -18 -3 -87 -29 -153 -57
-205 -87 -228 -96 -295 -122 -36 -13 -117 -45 -180 -69 -63 -25 -153 -59 -200
-75 -47 -17 -128 -47 -180 -67 -180 -69 -165 -67 -375 -55 -104 6 -316 20
-470 30 -154 11 -293 20 -310 20 -28 0 -28 1 -10 14 11 8 74 28 140 46 137 36
425 110 565 146 52 13 110 31 128 41 35 19 72 82 72 123 0 39 -40 111 -74 131
-35 21 -109 23 -501 8z"/>
<path d="M2020 2109 c-80 -17 -724 -129 -740 -129 -7 0 -10 -262 -10 -790 l0
-790 23 4 c57 13 838 159 912 171 22 3 71 13 108 22 l68 15 -7 36 c-3 21 -16
93 -30 162 -13 69 -37 202 -54 295 -17 94 -42 229 -55 300 -14 72 -39 209 -56
305 -17 96 -42 227 -54 290 -25 128 -23 126 -105 109z"/>
</g>
</svg>
